<?xml version='1.0' encoding='utf-8'?>
<svg xmlns="http://www.w3.org/2000/svg" width="360mm" height="160mm" version="1.1" style="shape-rendering:geometricPrecision; text-rendering:geometricPrecision; image-rendering:optimizeQuality; fill-rule:evenodd; clip-rule:evenodd" viewBox="0 0 36000 16000"> <defs> <style type="text/css">  .str0 {stroke:black;stroke-width:7.62} .fil8 {fill:black} .fil5 {fill:#99CCCC} .fil7 {fill:#99FFFF} .fil10 {fill:#CCCC33} .fil6 {fill:#FF6600} .fil11 {fill:yellow} .fil13 {fill:#FFFF61} .fil9 {fill:#FFFF66} .fil12 {fill:#FFFF99} .fil2 {fill:white} .fil0 {fill:url(#id0)} .fil1 {fill:url(#id1)} .fil3 {fill:url(#id2)} .fil4 {fill:url(#id3)}  </style> <linearGradient id="id0" gradientUnits="userSpaceOnUse" x1="17833" y1="15413.5" x2="17833" y2="641.49"> <stop offset="0" style="stop-color:#001050"/> <stop offset="0.45098" style="stop-color:#01104E"/> <stop offset="1" style="stop-color:#1A1A1A"/> </linearGradient> <linearGradient id="id1" gradientUnits="userSpaceOnUse" x1="1142.75" y1="14902" x2="9347.31" y2="6906.94"> <stop offset="0" style="stop-color:#1A1A1A"/> <stop offset="0.290196" style="stop-color:#474747"/> <stop offset="0.780392" style="stop-color:#919191"/> <stop offset="1" style="stop-color:#B3B3B3"/> </linearGradient> <linearGradient id="id2" gradientUnits="userSpaceOnUse" x1="6836.91" y1="16429.1" x2="14868.2" y2="5721.92"> <stop offset="0" style="stop-color:#333333"/> <stop offset="0.4" style="stop-color:#3C3C3C"/> <stop offset="1" style="stop-color:#B3B3B3"/> </linearGradient> <linearGradient id="id3" gradientUnits="userSpaceOnUse" x1="21161.5" y1="16686.4" x2="16426.6" y2="5029.59"> <stop offset="0" style="stop-color:#252525"/> <stop offset="0.231373" style="stop-color:#252525"/> <stop offset="0.490196" style="stop-color:#3B3B3B"/> <stop offset="1" style="stop-color:#999999"/> </linearGradient> </defs> <g id="Warstwa_x0020_1"> <metadata id="CorelCorpID_0Corel-Layer"/> <polygon class="fil0" points="223,15413 35444,15413 35444,641 223,641 "/> <path class="fil1" d="M7793 7134c-290,12 -679,210 -929,313 -265,108 -148,129 -490,21 -229,-71 -573,-174 -958,-17 -1614,632 -3266,1222 -5189,1431l0 5793 10037 -6204c0,0 -2085,-1306 -2387,-1335 -28,-2 -55,-3 -84,-2l0 0z"/> <circle class="fil2" cx="17509" cy="7490" r="2500"/> <path class="fil3" d="M11931 6749c-360,-3 -842,264 -842,264 0,0 -1857,1055 -3089,1367 -513,130 -530,314 -1482,627 -414,137 -1093,96 -1469,346 -1239,820 -1998,567 -2510,958 -559,428 -1100,636 -1614,849 -514,213 -702,520 -702,520l0 3724 21260 -41 -717 -4398c-89,825 -1344,-1857 -2415,-1889 -2770,-83 -5451,-2318 -6420,-2327 0,0 -27,29 0,0z"/> <path class="fil4" d="M24998 7115c-1099,345 -3944,543 -5605,1228 -1109,596 -3180,633 -3916,1137 -951,652 -2002,708 -3037,1163 -739,325 -1378,544 -2261,910 -572,480 -869,308 -1627,876 -759,568 -1190,753 -1886,968 -696,216 -4517,2016 -3809,2016l32583 0 0 -6687c0,0 -555,82 -804,55 -467,-52 -730,-288 -1136,-361 -697,-124 -1126,-46 -1748,-287 -1061,-410 -1938,-732 -2734,-1024 -599,-220 -742,-491 -1882,-701 -573,-106 -1662,581 -2138,707l0 0z" color="#000000"/> <polygon class="fil2 str0" points="13012,5423 12962,5603 12800,5511 12892,5673 12712,5723 12892,5773 12800,5935 12962,5843 13012,6023 13062,5843 13224,5935 13132,5773 13312,5723 13132,5673 13224,5511 13062,5603 "/> <polygon class="fil2 str0" points="14931,3886 14895,4015 14778,3949 14844,4065 14715,4101 14844,4137 14778,4253 14895,4188 14931,4317 14966,4188 15083,4253 15017,4137 15146,4101 15017,4065 15083,3949 14966,4015 "/> <polygon class="fil2 str0" points="22616,5470 22585,5584 22482,5526 22540,5628 22426,5660 22540,5691 22482,5794 22585,5736 22616,5849 22648,5736 22750,5794 22692,5691 22806,5660 22692,5628 22750,5526 22648,5584 "/> <polygon class="fil5 str0" points="24255,2455 24219,2584 24103,2518 24168,2635 24039,2671 24168,2706 24103,2823 24219,2757 24255,2886 24291,2757 24407,2823 24341,2706 24470,2671 24341,2635 24407,2518 24291,2584 "/> <circle class="fil2" cx="6018" cy="4685" r="100"/> <circle class="fil2" cx="9378" cy="6690" r="75"/> <circle class="fil2" cx="1732" cy="4044" r="50"/> <polygon class="fil2 str0" points="24431,5982 24377,6178 24200,6078 24300,6255 24104,6310 24300,6364 24200,6542 24377,6441 24431,6638 24486,6441 24663,6542 24563,6364 24759,6310 24563,6255 24663,6078 24486,6178 "/> <circle class="fil6" cx="5777" cy="2754" r="50"/> <ellipse class="fil2" transform="matrix(0.578885 -0.24838 0.270962 0.631515 34472.8 6313.19)" rx="159" ry="146"/> <ellipse class="fil2" transform="matrix(0.289443 -0.12419 0.135481 0.315757 30282.7 6674.65)" rx="159" ry="146"/> <ellipse class="fil2" transform="matrix(0.289443 -0.12419 0.135481 0.315757 33491.3 3893.59)" rx="159" ry="146"/> <polygon class="fil2 str0" points="19834,2720 19803,2833 19700,2775 19758,2878 19645,2909 19758,2941 19700,3043 19803,2985 19834,3099 19866,2985 19968,3043 19910,2941 20024,2909 19910,2878 19968,2775 19866,2833 "/> <circle class="fil2" cx="30069" cy="4097" r="100"/> <circle class="fil2" cx="26867" cy="2351" r="50"/> <circle class="fil2" cx="30912" cy="1060" r="50"/> <polygon class="fil5 str0" points="1612,7580 1648,7709 1765,7643 1699,7760 1828,7795 1699,7831 1765,7948 1648,7882 1612,8011 1576,7882 1460,7948 1526,7831 1397,7795 1526,7760 1460,7643 1576,7709 "/> <polygon class="fil2 str0" points="8368,1721 8399,1835 8502,1777 8444,1880 8557,1911 8444,1943 8502,2045 8399,1987 8368,2101 8336,1987 8234,2045 8292,1943 8178,1911 8292,1880 8234,1777 8336,1835 "/> <circle class="fil2" cx="9265" cy="1438" r="50"/> <circle class="fil7" cx="1465" cy="1272" r="50"/> <circle class="fil2" cx="3083" cy="3476" r="100"/> <path class="fil8" d="M26470 10050l-563 0 0 317c-26,-2 -52,-2 -78,-2 -596,0 -1078,341 -1078,762 0,17 1,35 2,53l-156 0 0 252 -413 0 0 -1906 -1235 0 0 2049c-70,-12 -144,-18 -220,-18 -266,0 -506,77 -679,201l0 -611 -1115 0 -35 -1784 -254 0 -49 1784 -830 0 -53 -2327 -303 0 -89 2839 -432 -174 -884 359 0 210 -390 0 0 -567 -968 0 0 -281 -524 -209 0 -455 -594 -395 -386 251 0 -682 -1058 0 0 1273 -962 0 0 1048 -297 0 0 -1319 -215 0c-50,-273 -368,-483 -753,-483 -9,0 -18,0 -26,0l0 -325 -1540 0 0 949 -1043 0 0 921 -390 -193 -1099 543 5 9 0 677 -344 -123 -311 108 0 -354 -317 -117 -43 -1765 -248 0 -54 1638 -199 -74 -425 118 0 -665 -2008 0 0 1243 -689 -486 -769 542 2 4 -194 0 0 565 -443 -1 -278 425 128 0 1 291 -512 1 -1 110 -352 189 -2 -2 0 -762 -487 0 0 1213 -2 0 0 498 1580 0 0 -1 33643 0 0 -227 -1 0 0 -2076 -66 -26 -624 267 0 722 -271 -215 -306 283 0 -176 0 -540 -396 0 0 -307 -541 0 0 -783 -666 -243 -625 243 0 379 -594 0 0 -942 -697 0 0 -581 237 2 -2036 -828 -229 113 0 -1204 -464 0 0 -656 -1234 0 0 656 -459 0 0 778z"/> </g> <g id="Warstwa_x0020_1_0"> <metadata id="CorelCorpID_1Corel-Layer"/> <g id="_139155464"> <rect class="fil2" x="9439" y="11056" width="180" height="270"/> <rect class="fil2" x="9437" y="11469" width="180" height="270"/> <rect class="fil2" x="9437" y="11852" width="180" height="270"/> <rect class="fil2" x="9435" y="12264" width="180" height="270"/> <rect class="fil9" x="9746" y="11056" width="180" height="270"/> <rect class="fil9" x="9744" y="11469" width="180" height="270"/> <path class="fil2" d="M8986 12434l0 0c0,-26 -44,-48 -97,-48 -53,0 -96,22 -96,48l0 0 0 206 193 0 0 -206z"/> <path class="fil10" d="M8991 12796l0 0c0,-26 -43,-47 -97,-47 -53,0 -96,21 -96,47l0 0 0 207 193 0 0 -207z"/> <path class="fil2" d="M8986 13157l0 0c0,-26 -44,-47 -97,-47 -53,0 -96,21 -96,47l0 0 0 207 193 0 0 -207z"/> <path class="fil2" d="M15839 10558l0 0c0,-20 -33,-36 -72,-36 -40,0 -73,16 -73,36l0 0 0 154 145 0 0 -154z"/> <path class="fil2" d="M15843 10829l0 0c0,-20 -33,-35 -73,-35 -39,0 -72,15 -72,35l0 0 0 155 145 0 0 -155z"/> <path class="fil11" d="M15839 11099l0 0c0,-19 -33,-35 -72,-35 -40,0 -73,16 -73,35l0 0 0 155 145 0 0 -155z"/> <path class="fil2" d="M15596 10560l0 0c0,-19 -32,-35 -72,-35 -40,0 -72,16 -72,35l0 0 0 155 144 0 0 -155z"/> <path class="fil11" d="M15600 10832l0 0c0,-20 -32,-35 -72,-35 -40,0 -72,15 -72,35l0 0 0 155 144 0 0 -155z"/> <path class="fil2" d="M15596 11102l0 0c0,-19 -32,-35 -72,-35 -40,0 -72,16 -72,35l0 0 0 155 144 0 0 -155z"/> <rect class="fil2" x="10537" y="10356" width="180" height="195"/> <rect class="fil2" x="10536" y="10633" width="180" height="195"/> <rect class="fil2" x="10846" y="10059" width="180" height="195"/> <rect class="fil2" x="10843" y="10356" width="180" height="195"/> <rect class="fil2" x="10849" y="10627" width="180" height="195"/> <rect class="fil2" x="10846" y="10925" width="180" height="195"/> <rect class="fil2" x="11129" y="10058" width="180" height="195"/> <rect class="fil2" x="11127" y="10356" width="180" height="195"/> <path class="fil2" d="M8339 12432l0 0c0,-26 -43,-47 -96,-47 -54,0 -97,21 -97,47l0 0 0 207 193 0 0 -207z"/> <path class="fil2" d="M8344 12794l0 0c0,-26 -43,-47 -96,-47 -54,0 -97,21 -97,47l0 0 0 207 193 0 0 -207z"/> <path class="fil2" d="M8339 13155l0 0c0,-26 -43,-47 -96,-47 -54,0 -97,21 -97,47l0 0 0 207 193 0 0 -207z"/> <path class="fil2" d="M13963 12840l0 0c0,-26 -43,-47 -97,-47 -53,0 -96,21 -96,47l0 0 0 206 193 0 0 -206z"/> <path class="fil2" d="M13968 13202l0 0c0,-26 -43,-47 -96,-47 -54,0 -97,21 -97,47l0 0 0 207 193 0 0 -207z"/> <path class="fil2" d="M13963 13563l0 0c0,-26 -43,-47 -97,-47 -53,0 -96,21 -96,47l0 0 0 207 193 0 0 -207z"/> <path class="fil2" d="M12177 13708l0 0c0,-26 -43,-47 -97,-47 -53,0 -96,21 -96,47l0 0 0 207 193 0 0 -207z"/> <path class="fil11" d="M12172 14069l0 0c0,-26 -44,-47 -97,-47 -53,0 -97,21 -97,47l0 0 0 207 194 0 0 -207z"/> <rect class="fil11" x="14231" y="9833" width="180" height="195"/> <rect class="fil2" x="14229" y="10131" width="180" height="195"/> <rect class="fil2" x="14227" y="10704" width="180" height="195"/> <rect class="fil2" x="14538" y="9833" width="180" height="195"/> <rect class="fil2" x="14541" y="10401" width="180" height="195"/> <rect class="fil11" x="14539" y="10699" width="180" height="195"/> <rect class="fil2" x="14822" y="9833" width="180" height="195"/> <rect class="fil2" x="14819" y="10130" width="180" height="195"/> <rect class="fil2" x="13853" y="11463" width="180" height="195"/> <rect class="fil2" x="14443" y="11463" width="180" height="195"/> <path class="fil2" d="M11824 13354l0 0c0,-26 -43,-47 -97,-47 -53,0 -96,21 -96,47l0 0 0 206 193 0 0 -206z"/> <path class="fil11" d="M11829 13716l0 0c0,-26 -43,-47 -96,-47 -54,0 -97,21 -97,47l0 0 0 207 193 0 0 -207z"/> <path class="fil2" d="M11824 14077l0 0c0,-26 -43,-47 -97,-47 -53,0 -96,21 -96,47l0 0 0 207 193 0 0 -207z"/> <path class="fil2" d="M11491 13343l0 0c0,-26 -44,-47 -97,-47 -53,0 -96,21 -96,47l0 0 0 207 193 0 0 -207z"/> <path class="fil2" d="M11491 14067l0 0c0,-26 -44,-47 -97,-47 -53,0 -96,21 -96,47l0 0 0 206 193 0 0 -206z"/> <rect class="fil2" x="4019" y="11811" width="180" height="195"/> <rect class="fil2" x="4017" y="12109" width="180" height="195"/> <rect class="fil12" x="4017" y="12385" width="180" height="195"/> <rect class="fil12" x="4015" y="12683" width="180" height="195"/> <rect class="fil11" x="5179" y="12942" width="180" height="195"/> <rect class="fil11" x="5176" y="13240" width="180" height="195"/> <rect class="fil2" x="4329" y="12380" width="180" height="195"/> <rect class="fil2" x="4327" y="12678" width="180" height="195"/> <rect class="fil2" x="4607" y="12109" width="180" height="195"/> <rect class="fil2" x="4604" y="12373" width="180" height="195"/> <rect class="fil2" x="4602" y="12947" width="180" height="195"/> <rect class="fil2" x="4600" y="13245" width="180" height="195"/> <rect class="fil11" x="4911" y="12373" width="180" height="195"/> <rect class="fil9" x="4909" y="12671" width="180" height="195"/> <rect class="fil11" x="4914" y="12942" width="180" height="195"/> <rect class="fil11" x="4912" y="13239" width="180" height="195"/> <rect class="fil11" x="5195" y="12373" width="180" height="195"/> <rect class="fil11" x="5193" y="12670" width="180" height="195"/> <path class="fil2" d="M6663 12782l0 0c0,-21 -34,-37 -76,-37 -42,0 -75,16 -75,37l0 0 0 162 151 0 0 -162z"/> <path class="fil2" d="M6667 13067l0 0c0,-21 -34,-37 -75,-37 -42,0 -76,16 -76,37l0 0 0 162 151 0 0 -162z"/> <path class="fil2" d="M6663 13350l0 0c0,-20 -34,-37 -76,-37 -41,0 -75,17 -75,37l0 0 0 163 151 0 0 -163z"/> <rect class="fil2" x="7350" y="13451" width="112" height="121"/> <rect class="fil2" x="7349" y="13636" width="112" height="121"/> <rect class="fil2" x="7349" y="13807" width="112" height="121"/> <rect class="fil2" x="7347" y="13992" width="112" height="121"/> <path class="fil2" d="M3128 12908l-1 0c0,-26 -43,-47 -96,-47 -53,0 -97,21 -97,47l0 0 0 207 194 0 0 -207z"/> <path class="fil11" d="M3133 13270l0 0c0,-26 -43,-47 -97,-47 -53,0 -96,21 -96,47l0 0 0 207 193 0 0 -207z"/> <path class="fil2" d="M3128 13631l0 0c0,-26 -44,-47 -97,-47 -53,0 -97,21 -97,47l0 0 0 207 194 0 0 -207z"/> <rect class="fil2" x="1253" y="14405" width="180" height="195"/> <rect class="fil2" x="1251" y="14703" width="180" height="195"/> <rect class="fil2" x="458" y="13866" width="112" height="121"/> <rect class="fil11" x="458" y="14038" width="112" height="121"/> <rect class="fil2" x="457" y="14223" width="112" height="121"/> <path class="fil2" d="M32460 12553l0 0c0,-26 -43,-47 -97,-47 -53,0 -96,21 -96,47l0 0 0 207 193 0 0 -207z"/> <path class="fil9" d="M32465 12916l0 0c0,-26 -43,-47 -96,-47 -54,0 -97,21 -97,47l0 0 0 207 193 0 0 -207z"/> <path class="fil9" d="M32460 13277l0 0c0,-26 -43,-47 -97,-47 -53,0 -96,21 -96,47l0 0 0 207 193 0 0 -207z"/> <path class="fil9" d="M32985 13181l0 0c0,-26 -43,-47 -96,-47 -54,0 -97,21 -97,47l0 0 0 206 193 0 0 -206z"/> <path class="fil9" d="M32985 13904l0 0c0,-26 -43,-47 -96,-47 -54,0 -97,21 -97,47l0 0 0 207 193 0 0 -207z"/> <rect class="fil2" x="22616" y="12379" width="180" height="195"/> <rect class="fil2" x="22928" y="12374" width="180" height="195"/> <rect class="fil2" x="23203" y="12367" width="180" height="195"/> <rect class="fil2" x="23793" y="12367" width="180" height="195"/> <rect class="fil2" x="23101" y="9685" width="123" height="133"/> <rect class="fil2" x="23099" y="9888" width="123" height="133"/> <rect class="fil2" x="23099" y="10076" width="123" height="133"/> <rect class="fil2" x="23098" y="10279" width="123" height="133"/> <rect class="fil2" x="23302" y="9889" width="123" height="133"/> <rect class="fil2" x="23301" y="10091" width="123" height="133"/> <rect class="fil2" x="23301" y="10280" width="123" height="133"/> <rect class="fil2" x="23299" y="10482" width="123" height="133"/> <rect class="fil2" x="21278" y="13496" width="185" height="281"/> <rect class="fil2" x="21886" y="13496" width="185" height="281"/> <rect class="fil2" x="19868" y="11338" width="180" height="195"/> <rect class="fil2" x="19866" y="11636" width="180" height="195"/> <rect class="fil2" x="19866" y="11912" width="180" height="195"/> <rect class="fil9" x="19863" y="12209" width="180" height="195"/> <rect class="fil2" x="20175" y="11338" width="180" height="195"/> <rect class="fil9" x="20173" y="11636" width="180" height="195"/> <rect class="fil2" x="20178" y="11907" width="180" height="195"/> <rect class="fil2" x="20176" y="12204" width="180" height="195"/> <rect class="fil2" x="20458" y="11338" width="180" height="195"/> <rect class="fil2" x="20456" y="11635" width="180" height="195"/> <path class="fil11" d="M19162 12264l0 0c0,-25 -42,-45 -93,-45 -51,0 -93,20 -93,45l0 0 0 199 186 0 0 -199z"/> <path class="fil2" d="M19167 12613l0 0c0,-25 -41,-45 -93,-45 -51,0 -93,20 -93,45l0 0 0 199 186 0 0 -199z"/> <path class="fil11" d="M19162 12961l0 0c0,-25 -42,-45 -93,-45 -51,0 -93,20 -93,45l0 0 0 199 186 0 0 -199z"/> <path class="fil11" d="M18850 12268l0 0c0,-25 -42,-45 -93,-45 -51,0 -93,20 -93,45l0 0 0 199 186 0 0 -199z"/> <path class="fil11" d="M18855 12617l0 0c0,-25 -41,-45 -93,-45 -51,0 -93,20 -93,45l0 0 0 199 186 0 0 -199z"/> <path class="fil11" d="M18850 12965l0 0c0,-25 -41,-46 -93,-46 -51,0 -93,21 -93,46l0 0 0 199 186 0 0 -199z"/> <rect class="fil2" x="15727" y="12003" width="180" height="195"/> <rect class="fil2" x="16034" y="12003" width="180" height="195"/> <rect class="fil2" x="16318" y="12003" width="180" height="195"/> <rect class="fil2" x="21411" y="11352" width="180" height="195"/> <rect class="fil2" x="21718" y="11352" width="180" height="195"/> <rect class="fil2" x="26627" y="9420" width="180" height="195"/> <rect class="fil2" x="26625" y="9717" width="180" height="195"/> <rect class="fil2" x="26624" y="9994" width="180" height="195"/> <rect class="fil2" x="26622" y="10291" width="180" height="195"/> <rect class="fil2" x="26937" y="9988" width="180" height="195"/> <rect class="fil2" x="26934" y="10286" width="180" height="195"/> <rect class="fil2" x="27217" y="9419" width="180" height="195"/> <rect class="fil2" x="27215" y="9717" width="180" height="195"/> <rect class="fil2" x="28290" y="9416" width="180" height="195"/> <rect class="fil2" x="28288" y="9714" width="180" height="195"/> <rect class="fil2" x="28288" y="9990" width="180" height="195"/> <rect class="fil2" x="28286" y="10288" width="180" height="195"/> <rect class="fil2" x="27563" y="8732" width="180" height="195"/> <rect class="fil2" x="27561" y="9029" width="180" height="195"/> <rect class="fil2" x="27870" y="8732" width="180" height="195"/> <rect class="fil2" x="27868" y="9029" width="180" height="195"/> <rect class="fil13" x="28607" y="11592" width="180" height="195"/> <rect class="fil13" x="28605" y="11889" width="180" height="195"/> <rect class="fil13" x="28914" y="11591" width="180" height="195"/> <rect class="fil13" x="28912" y="11889" width="180" height="195"/> <rect class="fil13" x="29198" y="11591" width="180" height="195"/> <rect class="fil13" x="29195" y="11889" width="180" height="195"/> <rect class="fil2" x="25206" y="11301" width="185" height="281"/> <rect class="fil2" x="25204" y="11731" width="185" height="281"/> <rect class="fil2" x="25522" y="11301" width="185" height="281"/> <rect class="fil2" x="25520" y="11731" width="185" height="281"/> <rect class="fil2" x="25814" y="11301" width="185" height="281"/> <rect class="fil2" x="25812" y="11730" width="185" height="281"/> <rect class="fil2" x="25204" y="11731" width="185" height="281"/> <rect class="fil2" x="25520" y="11731" width="185" height="281"/> <rect class="fil2" x="25812" y="11730" width="185" height="281"/> <path class="fil12" d="M25350 13618l0 0c0,-26 -44,-47 -97,-47 -53,0 -97,21 -97,47l0 0 0 207 194 0 0 -207z"/> <path class="fil12" d="M25355 13981l0 0c0,-26 -43,-47 -97,-47 -53,0 -96,21 -96,47l0 0 0 207 193 0 0 -207z"/> <path class="fil12" d="M25350 14342l0 0c0,-26 -44,-47 -97,-47 -53,0 -97,21 -97,47l0 0 0 206 194 0 0 -206z"/> <path class="fil2" d="M27884 12289l0 0c0,-26 -43,-47 -97,-47 -53,0 -96,21 -96,47l0 0 0 207 193 0 0 -207z"/> <path class="fil2" d="M27884 13013l0 0c0,-26 -43,-47 -97,-47 -53,0 -96,21 -96,47l0 0 0 207 193 0 0 -207z"/> <path class="fil12" d="M31059 12131l0 0c0,-26 -43,-47 -96,-47 -54,0 -97,21 -97,47l0 0 0 207 193 0 0 -207z"/> <path class="fil2" d="M31065 12494l0 0c0,-26 -44,-47 -97,-47 -53,0 -97,21 -97,47l0 0 0 207 194 0 0 -207z"/> <path class="fil2" d="M31059 12855l0 0c0,-26 -43,-47 -96,-47 -54,0 -97,21 -97,47l0 0 0 207 193 0 0 -207z"/> <rect class="fil2" x="26248" y="13307" width="112" height="121"/> <rect class="fil2" x="26247" y="13492" width="112" height="121"/> <path class="fil2" d="M35227 13665l0 0c0,-26 -44,-47 -97,-47 -53,0 -96,21 -96,47l0 0 0 207 193 0 0 -207z"/> <path class="fil9" d="M35232 14027l0 0c0,-26 -43,-47 -97,-47 -53,0 -96,21 -96,47l0 0 0 207 193 0 0 -207z"/> </g> </g> </svg>